<?xml version="1.0" standalone="no"?>
<!DOCTYPE svg PUBLIC "-//W3C//DTD SVG 20010904//EN"
 "http://www.w3.org/TR/2001/REC-SVG-20010904/DTD/svg10.dtd">
<svg version="1.0" xmlns="http://www.w3.org/2000/svg"
 width="192.000000pt" height="192.000000pt" viewBox="0 0 192.000000 192.000000"
 preserveAspectRatio="xMidYMid meet">
<metadata>
Created by potrace 1.14, written by Peter Selinger 2001-2017
</metadata>
<g transform="translate(0.000000,192.000000) scale(0.100000,-0.100000)"
fill="#000000" stroke="none">
<path d="M1 1653 c0 -148 3 -262 6 -255 4 10 8 10 19 1 16 -13 104 -21 104 -9
0 8 17 8 35 0 6 -3 41 -5 78 -5 57 1 67 -1 63 -14 -3 -9 2 -5 12 9 36 51 66
82 88 90 13 5 34 31 48 57 29 58 72 103 98 103 10 0 32 -7 47 -14 31 -17 181
-172 181 -188 0 -6 9 1 21 16 16 20 29 26 59 26 l38 0 6 83 c3 45 6 94 7 110
2 27 2 27 16 7 13 -19 13 -23 -1 -39 -12 -13 -16 -38 -16 -94 l0 -77 -45 0
c-39 0 -46 -3 -60 -30 -16 -32 -35 -40 -35 -16 0 21 -111 147 -157 179 -22 15
-49 27 -60 27 -26 0 -69 -50 -95 -108 -11 -24 -29 -47 -42 -52 -42 -15 -95
-91 -140 -199 -76 -182 -81 -219 -32 -265 29 -26 38 -71 15 -71 -18 0 -69 42
-85 71 -6 10 -24 21 -40 22 -15 2 -33 10 -39 17 -6 8 -26 13 -50 12 l-40 -2
-2 -283 c-2 -221 0 -283 10 -279 6 2 21 0 32 -4 l20 -9 -20 1 c-11 1 -25 1
-32 0 -9 -1 -12 -62 -12 -236 l-1 -235 348 0 348 0 22 30 c12 16 22 33 22 38
0 15 -91 44 -141 46 -32 1 -58 9 -85 28 -50 35 -87 48 -130 48 -49 0 -90 24
-118 69 -14 21 -39 45 -56 52 -24 11 -30 19 -26 35 4 14 -2 28 -14 39 -29 26
-26 69 6 90 32 21 52 7 46 -33 -3 -23 5 -39 38 -78 24 -27 49 -53 56 -57 8 -4
14 -14 14 -22 0 -8 12 -17 28 -21 15 -3 45 -15 68 -25 22 -10 50 -19 62 -19
11 0 42 -11 68 -25 26 -14 55 -25 65 -25 10 0 21 -5 24 -11 4 -5 31 -21 61
-34 64 -28 73 -45 45 -81 -12 -15 -21 -31 -21 -35 0 -5 115 -9 256 -9 l256 0
-27 31 c-14 18 -25 41 -23 53 4 29 64 57 107 50 27 -4 42 1 76 25 43 31 95 50
95 35 -1 -22 -21 -37 -56 -40 -20 -2 -40 -7 -43 -11 -6 -8 -83 -47 -113 -57
-21 -6 -23 -22 -5 -59 l12 -27 327 0 328 0 0 374 c0 287 -3 376 -13 379 -9 4
-9 6 1 6 22 2 13 31 -13 41 -22 8 -24 15 -23 55 2 40 -2 49 -28 73 -17 15 -34
34 -37 43 -3 9 -22 20 -42 23 -29 6 -35 11 -30 24 17 40 14 62 -19 154 -60
165 -133 288 -172 288 -7 0 -26 25 -41 56 -56 115 -92 128 -167 62 l-48 -41
-41 22 c-23 12 -62 33 -87 46 -34 19 -57 25 -93 23 -39 -3 -47 0 -47 14 0 9 5
20 10 23 17 10 11 61 -8 78 -28 25 -67 21 -91 -9 -12 -15 -21 -22 -21 -15 0
21 40 51 68 51 17 0 37 -10 50 -23 23 -24 30 -71 12 -82 -22 -14 -8 -25 33
-25 39 -1 65 -11 171 -68 l38 -21 50 40 c27 21 60 39 73 39 34 0 68 -32 103
-97 18 -34 43 -65 61 -75 17 -9 45 -39 62 -65 17 -26 28 -38 25 -27 -6 20 -3
21 54 20 44 -2 60 1 60 11 0 7 5 13 11 13 5 0 7 -4 4 -10 -6 -9 -1 -11 35 -14
8 -1 18 5 22 14 5 12 7 12 7 -2 1 -21 5 -22 32 -8 13 8 19 7 19 0 0 -6 4 -8
10 -5 5 3 10 39 10 79 0 55 -4 77 -16 87 -14 11 -18 10 -30 -6 -24 -33 -68
-55 -109 -55 -47 0 -104 26 -119 55 -16 29 -37 39 -73 36 -45 -4 -111 29 -158
78 -21 22 -46 41 -55 41 -9 0 -24 6 -35 13 -25 19 -13 65 19 73 12 3 38 21 56
41 31 32 37 35 79 30 37 -4 47 -1 61 16 25 30 86 29 111 -2 11 -13 19 -32 19
-43 0 -15 3 -18 13 -10 6 6 23 11 37 11 14 1 48 4 76 7 47 5 54 3 88 -26 l36
-32 0 71 0 71 -960 0 -960 0 1 -267z m469 127 c36 -19 42 -45 25 -104 -19 -66
-48 -88 -108 -84 -37 3 -46 -1 -74 -31 -29 -32 -38 -35 -97 -39 -39 -3 -70
-10 -77 -18 -13 -16 -89 -19 -89 -4 0 6 5 10 10 10 6 0 8 11 4 25 -3 14 -2 25
3 25 5 0 9 22 9 49 -1 53 18 88 66 124 30 22 108 34 133 19 14 -7 27 -4 53 14
37 26 108 32 142 14z m520 -70 c0 -13 -7 -20 -20 -20 -19 0 -27 20 -13 33 13
14 33 6 33 -13z m-15 -106 c18 -12 37 -14 77 -9 49 6 59 3 143 -40 86 -44 93
-46 163 -43 39 2 72 0 72 -3 0 -4 -18 -23 -41 -43 -66 -60 -109 -69 -172 -36
-44 24 -94 26 -144 5 -55 -23 -133 -15 -133 15 0 5 12 2 28 -6 34 -18 51 -18
95 1 46 19 134 19 167 0 14 -8 36 -14 49 -15 25 0 101 38 101 52 0 4 -20 8
-44 8 -56 0 -108 19 -171 61 -47 32 -55 34 -121 31 -60 -2 -73 1 -89 18 -22
24 -13 26 20 4z m-50 -184 c4 -6 -6 -10 -22 -10 -24 0 -33 -7 -50 -44 l-21
-43 145 -7 c80 -4 147 -5 149 -3 3 2 -4 25 -15 50 -17 40 -18 46 -4 51 9 4 17
5 18 4 11 -15 69 -124 67 -125 -6 -6 -413 -13 -422 -8 -6 4 4 33 27 76 38 68
38 69 80 69 23 0 45 -4 48 -10z m-428 -37 c-3 -3 -16 2 -28 11 -22 15 -25 14
-48 -7 -21 -19 -23 -19 -11 -2 8 11 19 23 24 27 11 7 71 -20 63 -29z m693 27
c0 -5 -4 -10 -9 -10 -6 0 -13 5 -16 10 -3 6 1 10 9 10 9 0 16 -4 16 -10z
m-710 -55 c0 -8 -4 -15 -10 -15 -5 0 -7 7 -4 15 4 8 8 15 10 15 2 0 4 -7 4
-15z m-87 -10 c-3 -9 -8 -14 -10 -11 -3 3 -2 9 2 15 9 16 15 13 8 -4z m40 -12
c-7 -2 -19 -2 -25 0 -7 3 -2 5 12 5 14 0 19 -2 13 -5z m137 -18 c13 -14 21
-25 18 -25 -2 0 -15 11 -28 25 -13 14 -21 25 -18 25 2 0 15 -11 28 -25z m-140
-51 c0 -27 -4 -34 -19 -34 -36 0 -81 13 -75 21 3 5 13 5 24 -1 35 -19 60 -12
60 15 0 21 -5 25 -30 25 -16 0 -30 4 -30 8 0 4 16 6 35 4 32 -4 35 -7 35 -38z
m47 11 c1 -19 -3 -38 -8 -41 -5 -3 -9 13 -9 35 0 50 16 55 17 6z m154 -22 c13
-16 12 -17 -3 -4 -10 7 -18 15 -18 17 0 8 8 3 21 -13z m193 -104 c24 -17 32
-29 26 -38 -6 -11 -15 -8 -43 13 -36 28 -52 57 -62 116 -5 33 -4 31 20 -16 14
-28 40 -62 59 -75z m386 46 c-10 -31 -72 -95 -92 -95 -19 0 -5 23 37 63 28 27
48 56 52 78 6 27 8 30 11 11 2 -12 -2 -38 -8 -57z m-26 55 c-6 -6 -77 -13
-163 -15 -84 -2 -155 -5 -157 -7 -2 -2 -4 -18 -6 -36 -1 -18 -5 -32 -8 -32
-15 0 -70 75 -70 94 0 3 93 6 207 6 143 0 204 -3 197 -10z m-820 -50 c7 0 10
-14 8 -40 -3 -29 -8 -40 -21 -39 -10 0 -11 2 -3 6 6 2 12 18 12 34 0 26 -9 34
-32 30 -5 0 -8 4 -8 10 0 6 7 8 16 5 9 -3 21 -6 28 -6z m79 -7 c-29 -4 -33 -8
-33 -34 0 -24 4 -29 24 -29 13 0 27 5 29 10 3 6 4 5 3 -2 -1 -7 -18 -14 -37
-16 l-35 -3 4 41 c4 39 5 40 41 38 l36 -1 -32 -4z m-127 -30 c-4 -9 -1 -20 6
-25 10 -6 8 -8 -4 -8 -10 0 -18 4 -18 9 0 14 11 41 17 41 3 0 2 -8 -1 -17z
m690 -34 c26 -29 92 -59 132 -59 17 0 32 -5 32 -11 0 -8 -18 -10 -55 -7 -43 4
-64 12 -96 38 -37 29 -43 31 -51 16 -14 -26 -83 -56 -128 -56 -55 0 -50 16 8
24 46 6 122 47 122 66 0 16 16 11 36 -11z m-623 -45 c25 -5 27 -9 27 -54 l0
-47 -45 8 c-54 10 -85 25 -85 42 0 9 2 9 8 0 10 -15 57 -33 88 -33 21 0 24 5
24 35 0 29 -4 35 -25 40 -14 3 -37 8 -52 11 -16 3 -29 0 -34 -8 -7 -10 -9 -8
-9 6 0 19 6 19 103 0z m316 -10 c24 -28 21 -45 -4 -24 -21 17 -38 50 -27 50 5
0 19 -12 31 -26z m279 -4 c-14 -41 -44 -60 -96 -60 l-44 0 7 -42 c17 -99 65
-182 110 -194 14 -3 25 -13 25 -21 0 -10 -6 -12 -22 -8 -67 19 -117 95 -141
210 l-14 70 46 6 c51 7 100 29 120 53 19 23 21 20 9 -14z m302 -10 c-12 -16
-26 -27 -32 -24 -5 4 2 18 18 35 35 36 43 30 14 -11z m-833 -47 c-2 -16 -4 -3
-4 27 0 30 2 43 4 28 2 -16 2 -40 0 -55z m433 -53 c0 -16 -2 -30 -4 -30 -2 0
-6 14 -8 30 -3 17 -1 30 4 30 4 0 8 -13 8 -30z m27 -17 c-3 -10 -5 -2 -5 17 0
19 2 27 5 18 2 -10 2 -26 0 -35z m874 19 c-7 -2 -18 1 -23 6 -8 8 -4 9 13 5
13 -4 18 -8 10 -11z m-1351 -37 c19 0 60 3 91 8 l56 7 7 -38 c8 -51 -10 -62
-101 -62 -82 0 -132 16 -157 51 -28 40 -21 50 27 42 23 -4 58 -8 77 -8z m1065
0 c6 -1 9 -21 7 -44 -4 -39 -6 -41 -37 -41 -19 0 -45 4 -59 10 -22 8 -26 16
-26 50 l0 41 53 -6 c28 -4 57 -8 62 -10z m-596 -50 c0 -5 -4 -3 -9 5 -5 8 -9
22 -9 30 0 16 17 -16 18 -35z m18 3 c-3 -8 -6 -5 -6 6 -1 11 2 17 5 13 3 -3 4
-12 1 -19z m-696 -29 c-5 -13 -10 -19 -10 -12 -1 15 10 45 15 40 3 -2 0 -15
-5 -28z m701 -3 c7 4 8 2 4 -4 -4 -7 -3 -12 2 -12 6 0 13 -8 16 -17 5 -13 0
-11 -18 6 -15 14 -26 29 -25 35 0 6 3 5 6 -2 2 -6 10 -9 15 -6z m918 -33 c-11
-17 -11 -17 -6 0 3 10 6 24 7 30 0 9 2 9 5 0 3 -7 0 -20 -6 -30z m-1429 -81
c-3 -36 1 -49 15 -59 16 -11 20 -30 22 -103 4 -101 12 -113 69 -108 l38 3 -2
54 c-3 59 -9 73 -23 51 -8 -13 -10 -13 -10 2 0 10 -7 15 -17 13 -10 -1 -12 0
-5 2 21 8 9 103 -13 103 -14 0 -65 39 -52 40 5 0 16 -7 24 -16 9 -8 24 -13 34
-11 15 4 18 -5 24 -54 6 -47 11 -59 24 -59 14 0 20 -14 27 -65 11 -74 11 -75
-66 -75 -37 0 -55 6 -74 23 -23 20 -26 33 -36 150 -14 177 -14 180 8 166 13
-8 16 -21 13 -57z m-164 42 c-2 -3 -14 -7 -26 -9 -13 -2 -32 -7 -44 -11 -18
-6 -20 -4 -10 7 7 8 28 15 48 16 20 0 34 -1 32 -3z m1222 -38 c-2 -30 -2 -30
-6 -3 -3 18 -10 27 -23 27 -17 0 -20 -9 -23 -72 l-3 -73 -2 81 -2 81 30 -5
c26 -4 30 -8 29 -36z m415 29 c-10 -8 -23 -15 -28 -15 -6 0 -1 7 10 15 10 8
23 15 28 15 6 0 1 -7 -10 -15z m-54 -16 c-7 -11 -14 -18 -17 -15 -3 3 0 12 7
21 18 21 23 19 10 -6z m-1543 5 c-3 -3 -12 -4 -19 -1 -8 3 -5 6 6 6 11 1 17
-2 13 -5z m-162 -54 c0 -38 -9 -53 -17 -28 -6 16 3 68 11 68 4 0 7 -18 6 -40z
m765 21 c0 -5 -19 -26 -42 -45 -40 -35 -41 -38 -39 -88 3 -68 -14 -52 -22 19
-6 52 -5 53 35 88 40 34 68 45 68 26z m864 -6 c3 -8 1 -15 -4 -15 -6 0 -10 7
-10 15 0 8 2 15 4 15 2 0 6 -7 10 -15z m-1487 -15 c4 -12 3 -13 -5 -1 -5 7
-15 10 -21 7 -6 -4 -11 -2 -11 4 0 17 33 8 37 -10z m51 -9 c-1 -16 -5 -28 -9
-26 -6 5 0 55 7 55 3 0 3 -13 2 -29z m1402 -15 c-6 -6 -10 -18 -10 -27 0 -9
-6 -19 -13 -22 -17 -6 -15 18 3 56 10 19 16 24 21 15 5 -7 4 -17 -1 -22z
m-235 -16 c10 0 14 -24 17 -100 3 -110 3 -110 -60 -110 l-37 0 3 64 c3 57 1
66 -17 78 -24 15 -27 28 -8 28 21 0 37 -46 37 -105 l0 -55 35 0 35 0 0 94 c0
74 -3 95 -15 100 -8 3 -14 16 -14 28 l2 23 4 -22 c2 -13 11 -23 18 -23z m-321
0 c16 0 17 -3 8 -12 -10 -10 -17 -7 -32 10 -11 12 -15 17 -8 12 7 -6 21 -10
32 -10z m-1104 6 c0 -2 -8 -10 -17 -17 -16 -13 -17 -12 -4 4 13 16 21 21 21
13z m1845 -46 c-3 -5 -12 -10 -18 -10 -7 0 -6 4 3 10 19 12 23 12 15 0z m-85
-14 c0 -2 -7 -7 -16 -10 -8 -3 -12 -2 -9 4 6 10 25 14 25 6z m-120 -16 c0 -5
-7 -10 -15 -10 -8 0 -15 5 -15 10 0 6 7 10 15 10 8 0 15 -4 15 -10z m29 -59
c-1 -13 -2 -13 -6 2 -2 9 -11 17 -19 17 -8 0 -12 5 -9 10 9 15 35 -8 34 -29z
m-1352 -21 c-3 -12 5 -29 21 -47 15 -15 26 -31 24 -35 -1 -4 6 -5 16 -1 14 5
15 3 5 -7 -31 -34 -106 48 -83 90 14 26 24 26 17 0z m-274 -60 c9 -11 13 -20
9 -20 -4 0 -15 9 -25 20 -9 11 -13 20 -9 20 4 0 15 -9 25 -20z m1768 -7 c-12
-20 -14 -14 -5 12 4 9 9 14 11 11 3 -2 0 -13 -6 -23z m-1821 -33 c-13 -11 -27
-20 -33 -20 -12 0 35 39 47 40 5 0 -1 -9 -14 -20z m523 5 c-3 -9 -8 -14 -10
-11 -3 3 -2 9 2 15 9 16 15 13 8 -4z m-446 -17 c-3 -8 -6 -5 -6 6 -1 11 2 17
5 13 3 -3 4 -12 1 -19z m413 7 c0 -16 -28 -19 -67 -9 -34 9 -17 24 28 24 28 0
39 -4 39 -15z m905 -7 c6 -4 2 -8 -7 -8 -10 0 -18 7 -18 17 0 9 3 12 8 7 4 -5
12 -12 17 -16z m50 12 c3 -6 -1 -7 -9 -4 -18 7 -21 14 -7 14 6 0 13 -4 16 -10z
m310 0 c3 -5 1 -10 -4 -10 -6 0 -11 5 -11 10 0 6 2 10 4 10 3 0 8 -4 11 -10z
m-1675 -40 c0 -5 -2 -10 -4 -10 -3 0 -8 5 -11 10 -3 6 -1 10 4 10 6 0 11 -4
11 -10z m-75 -50 c-10 -11 -22 -20 -28 -20 -5 0 1 9 14 20 31 25 37 25 14 0z
m70 0 c3 -5 1 -10 -4 -10 -6 0 -11 5 -11 10 0 6 2 10 4 10 3 0 8 -4 11 -10z
m1577 -25 c-5 -18 -11 -25 -15 -18 -4 7 -2 21 5 32 16 26 19 22 10 -14z
m-1511 -13 c-7 -2 -18 1 -23 6 -8 8 -4 9 13 5 13 -4 18 -8 10 -11z m1339 -49
c-8 -3 -22 -11 -30 -17 -13 -10 -13 -9 -1 7 7 9 21 17 30 16 13 0 14 -1 1 -6z
m-1436 -97 c-3 -15 -8 -25 -11 -23 -2 3 -1 17 3 31 3 15 8 25 11 23 2 -3 1
-17 -3 -31z m291 -5 c-3 -6 -11 -8 -17 -5 -6 4 -5 9 3 15 16 10 23 4 14 -10z
m1041 0 c-8 -12 -46 -21 -46 -11 0 5 10 11 23 13 12 2 23 5 25 6 2 0 1 -3 -2
-8z m-966 -11 c0 -5 -2 -10 -4 -10 -3 0 -8 5 -11 10 -3 6 -1 10 4 10 6 0 11
-4 11 -10z m-114 -40 c0 -12 -4 -16 -9 -11 -5 5 -6 14 -3 20 10 15 12 14 12
-9z m84 6 c0 -2 -7 -9 -15 -16 -13 -11 -14 -10 -9 4 5 14 24 23 24 12z m890
-6 c0 -5 -4 -10 -10 -10 -5 0 -10 5 -10 10 0 6 5 10 10 10 6 0 10 -4 10 -10z
m-1216 -16 c3 -8 2 -12 -4 -9 -6 3 -10 10 -10 16 0 14 7 11 14 -7z m343 -16
c-3 -8 -6 -5 -6 6 -1 11 2 17 5 13 3 -3 4 -12 1 -19z m48 -8 c1 -10 -2 -17 -7
-14 -4 3 -8 15 -8 26 0 26 13 15 15 -12z m815 11 c0 -6 -4 -12 -8 -15 -5 -3
-9 1 -9 9 0 8 4 15 9 15 4 0 8 -4 8 -9z"/>
<path d="M495 910 c-8 -13 20 -24 40 -16 8 3 15 10 15 16 0 13 -47 13 -55 0z"/>
<path d="M410 896 c0 -8 4 -17 9 -20 5 -4 7 3 4 14 -6 23 -13 26 -13 6z"/>
<path d="M448 863 c6 -2 18 -2 25 0 6 3 1 5 -13 5 -14 0 -19 -2 -12 -5z"/>
<path d="M1412 908 c5 -15 48 -18 48 -3 0 6 -11 11 -26 13 -18 3 -25 0 -22
-10z"/>
<path d="M380 456 c0 -2 8 -10 18 -17 15 -13 16 -12 3 4 -13 16 -21 21 -21 13z"/>
<path d="M1884 1310 c-24 -9 -71 -70 -55 -70 5 0 13 9 16 20 4 11 23 29 43 40
37 19 35 26 -4 10z"/>
<path d="M1769 1213 l-24 -28 30 25 c17 14 32 26 34 28 2 1 0 2 -6 2 -5 0 -20
-12 -34 -27z"/>
<path d="M72 1160 c7 -11 19 -22 28 -25 8 -4 4 5 -9 19 -29 31 -36 33 -19 6z"/>
</g>
</svg>
