<?xml version="1.0" standalone="no"?>
<!DOCTYPE svg PUBLIC "-//W3C//DTD SVG 20010904//EN"
 "http://www.w3.org/TR/2001/REC-SVG-20010904/DTD/svg10.dtd">
<svg version="1.0" xmlns="http://www.w3.org/2000/svg"
 width="512.000000pt" height="512.000000pt" viewBox="0 0 512.000000 512.000000"
 preserveAspectRatio="xMidYMid meet">
<metadata>
Created by potrace 1.14, written by Peter Selinger 2001-2017
</metadata>
<g transform="translate(0.000000,512.000000) scale(0.100000,-0.100000)"
fill="#000000" stroke="none">
<path d="M2545 4399 c-87 -51 -107 -153 -45 -232 l20 -25 -29 -31 c-37 -40
-41 -63 -41 -257 l0 -164 -87 0 c-115 -1 -136 -11 -177 -85 -40 -73 -58 -80
-74 -28 -17 55 -95 154 -230 291 -224 229 -318 256 -421 119 -35 -47 -116
-197 -140 -260 -7 -18 -20 -26 -47 -32 -137 -25 -260 -223 -445 -718 -82 -217
-87 -273 -33 -352 14 -21 24 -38 22 -39 -2 -1 -30 -15 -63 -31 -100 -48 -191
-155 -229 -268 -5 -17 -11 -15 -48 17 -117 100 -323 103 -440 5 -21 -17 -38
-39 -38 -51 0 -17 5 -15 42 16 130 112 318 98 439 -31 47 -50 93 -148 87 -187
-5 -33 -36 -32 -44 1 -25 105 -135 203 -228 203 -49 0 -71 -23 -90 -90 -26
-92 -48 -112 -132 -119 -66 -6 -69 -7 -72 -33 -3 -22 0 -26 17 -21 15 4 21 1
21 -12 0 -12 -6 -16 -20 -12 -19 5 -20 0 -20 -94 0 -92 1 -99 18 -90 9 5 44
14 78 21 139 27 288 -42 352 -164 22 -42 27 -64 27 -126 0 -83 -15 -122 -68
-177 -41 -44 -53 -32 -19 19 35 54 38 142 6 185 -31 41 -55 36 -83 -19 -28
-56 -49 -65 -175 -79 -104 -11 -136 -27 -136 -68 l0 -29 47 15 c180 55 373
-93 373 -288 0 -36 -7 -86 -16 -111 -15 -45 -93 -138 -115 -138 -7 0 0 9 15
21 34 27 65 87 72 141 7 50 -13 116 -39 132 -15 9 -22 6 -40 -17 -79 -101 -74
-98 -172 -104 -128 -8 -125 -5 -125 -117 l0 -93 88 5 c171 9 306 -57 398 -195
35 -53 36 -57 19 -67 -105 -62 -172 -133 -198 -210 -23 -68 -50 -80 -188 -85
l-119 -3 0 -119 0 -119 205 0 205 0 -29 46 c-105 165 -36 373 154 461 52 24
72 28 155 28 83 0 103 -4 155 -28 157 -73 235 -229 191 -380 -9 -31 -30 -73
-47 -92 l-31 -35 40 0 c39 0 41 2 69 57 23 48 28 71 28 133 0 41 -3 90 -7 108
-7 32 -6 34 35 52 108 50 252 9 318 -91 49 -71 50 -156 3 -224 l-24 -35 182 2
182 3 23 40 c31 55 30 115 -2 154 -38 44 -115 77 -463 195 -298 102 -478 172
-549 216 -29 17 -33 25 -33 63 0 136 -108 248 -256 264 l-51 5 5 103 c4 95 3
106 -23 163 l-27 61 35 42 c45 52 64 93 79 164 6 30 15 55 19 55 15 0 10 -83
-6 -114 -8 -15 -15 -30 -15 -31 0 -2 24 -4 53 -4 28 0 72 -1 96 -1 24 0 46 1
48 3 2 2 -3 17 -12 33 -8 16 -15 46 -15 66 0 35 3 38 47 58 26 11 55 28 65 37
16 14 18 14 18 1 0 -9 -7 -21 -15 -28 -8 -7 -15 -20 -15 -29 0 -17 31 -18 253
-12 42 1 60 24 34 44 -17 13 -36 82 -37 133 0 26 5 32 35 41 l34 11 5 -42 c17
-142 16 -155 -14 -190 -16 -18 -49 -73 -72 -122 -42 -87 -43 -91 -43 -194 0
-97 2 -110 32 -172 58 -122 173 -210 312 -239 94 -19 319 -6 424 25 48 14 90
26 92 26 3 0 21 -25 41 -56 53 -82 108 -131 167 -149 28 -8 66 -25 84 -38 50
-33 121 -144 139 -219 29 -116 -5 -174 -152 -259 -43 -26 -92 -61 -108 -78
l-30 -31 40 0 c31 0 47 6 65 26 13 14 50 39 82 56 71 39 144 116 153 165 30
158 -94 375 -238 417 -71 20 -106 49 -158 133 -38 60 -41 67 -25 76 10 5 34
24 54 43 l37 33 625 -2 626 -2 36 -32 c20 -17 43 -36 52 -41 15 -8 12 -17 -25
-75 -52 -84 -87 -113 -158 -133 -144 -42 -268 -259 -238 -417 9 -49 82 -127
155 -166 33 -17 74 -43 90 -56 18 -16 41 -25 62 -25 l33 0 -30 31 c-16 17 -65
52 -108 78 -147 85 -181 143 -152 259 18 75 89 186 139 219 18 13 56 30 84 38
59 18 114 67 167 149 20 31 38 56 41 56 2 0 44 -12 92 -26 105 -31 330 -44
424 -25 140 29 255 117 312 239 26 56 32 82 35 158 5 110 -13 163 -101 296
-59 89 -66 108 -44 109 38 2 129 0 177 -4 53 -4 58 -7 126 -74 55 -56 83 -75
132 -93 58 -21 62 -25 62 -54 -1 -48 -19 -119 -37 -138 -19 -21 -8 -41 18 -33
17 6 19 1 19 -34 0 -51 25 -127 56 -168 29 -39 30 -50 4 -58 -35 -11 -135
-112 -155 -154 -18 -40 -19 -41 -69 -42 -168 -1 -355 -113 -438 -261 -13 -22
-27 -41 -33 -40 -5 1 -41 7 -79 13 -244 44 -493 -136 -513 -369 -6 -71 -6 -72
18 -72 23 0 24 4 25 64 3 165 140 306 328 339 231 39 453 -127 459 -345 l2
-58 323 0 324 0 -7 32 c-12 54 -7 162 10 213 34 99 105 178 201 222 l54 24 0
70 c0 99 -15 95 -100 -28 -36 -51 -71 -63 -189 -63 -68 0 -90 -4 -118 -22 -96
-59 -65 -182 58 -225 63 -23 53 -36 -13 -17 -68 21 -112 50 -175 116 -143 153
-116 416 57 543 59 44 152 75 220 75 61 0 161 -31 203 -62 60 -46 57 -51 57
97 l0 137 -30 -7 c-17 -4 -68 -10 -113 -14 -114 -11 -157 -35 -157 -91 0 -12
-12 -21 -42 -28 -52 -13 -58 -9 -95 67 -24 47 -28 69 -28 136 0 67 5 88 27
130 36 67 100 128 173 162 54 25 71 28 163 28 89 0 102 2 102 17 0 12 -12 19
-46 24 -102 15 -233 -17 -305 -76 -21 -16 -40 -30 -43 -30 -14 0 -38 110 -38
173 1 208 147 363 354 375 l78 5 0 183 0 183 -30 16 c-38 20 -104 19 -124 -1
-9 -8 -23 -39 -31 -68 -9 -29 -26 -63 -40 -76 -22 -21 -26 -22 -74 -9 -45 11
-50 15 -45 33 4 12 8 52 8 91 l1 69 59 31 c49 24 72 30 125 30 39 0 83 -7 109
-18 41 -16 42 -16 42 2 0 27 -59 46 -145 45 -56 0 -82 -6 -130 -29 -33 -16
-64 -29 -69 -29 -4 -1 -16 19 -25 44 -39 103 -130 201 -235 256 -49 25 -58 34
-67 69 -6 22 -31 96 -56 165 -170 467 -307 694 -438 724 -27 6 -37 22 -94 138
-48 98 -77 145 -117 186 l-53 55 -53 -5 c-61 -5 -136 -50 -225 -137 -29 -28
-59 -51 -67 -51 -26 0 -110 41 -209 102 -136 84 -221 112 -312 104 -38 -3 -85
-9 -102 -12 -33 -6 -33 -6 -33 32 0 28 7 46 28 67 24 25 27 36 27 92 0 61 -2
67 -37 101 -31 32 -44 38 -90 41 -29 2 -62 -2 -73 -8z m117 -76 c25 -22 30
-60 14 -92 -26 -50 -92 -58 -125 -15 -62 78 36 173 111 107z m-95 -253 c27
-42 70 -53 168 -45 49 4 108 8 130 8 59 -1 148 -36 246 -98 153 -97 238 -125
377 -125 42 0 112 9 155 19 42 10 77 16 77 13 0 -12 -117 -146 -159 -181 -86
-72 -133 -91 -226 -91 -76 0 -87 3 -158 40 -71 38 -80 40 -162 40 -74 0 -98
-5 -176 -35 -103 -40 -169 -45 -246 -19 -62 21 -83 40 -83 76 l0 28 38 -24
c20 -14 65 -30 99 -37 61 -13 64 -12 141 20 91 37 201 55 288 48 45 -5 82 -17
138 -46 94 -50 147 -54 222 -16 53 26 134 90 134 106 0 5 -48 9 -107 9 -143 0
-198 16 -331 95 -213 127 -229 132 -336 117 -107 -16 -135 -15 -187 3 -73 26
-108 72 -77 103 16 16 21 15 35 -8z m-89 -470 l22 -29 -72 -3 -72 -3 -47 -105
-47 -105 346 -3 c190 -1 347 -1 349 1 2 2 -17 48 -42 102 -25 54 -44 104 -41
110 7 18 83 35 94 21 5 -6 44 -73 86 -148 55 -97 75 -144 71 -158 -6 -20 -15
-20 -506 -20 -477 0 -500 1 -518 19 -19 19 -17 22 76 185 l94 166 93 0 c91 0
93 -1 114 -30z m-1130 -7 c2 -8 -6 -13 -23 -13 -38 0 -86 -53 -127 -140 -30
-63 -35 -69 -58 -64 -14 3 -29 9 -33 13 -11 11 82 150 127 189 30 27 45 32 74
30 19 -2 37 -9 40 -15z m1753 -3 c10 -6 19 -20 19 -30 0 -27 -55 -28 -64 -2
-3 9 -9 23 -12 30 -7 15 29 16 57 2z m-1988 -241 c12 -7 23 -13 25 -14 2 -2
-77 -177 -83 -183 -8 -8 -45 20 -45 34 0 16 70 174 77 174 2 0 14 -5 26 -11z
m961 -150 c15 -95 92 -208 182 -268 25 -16 50 -31 56 -33 6 -2 8 -16 3 -36
l-7 -32 -69 0 c-43 0 -81 -6 -99 -15 l-30 -15 -36 56 c-89 139 -104 259 -42
349 12 19 26 35 29 35 4 0 9 -19 13 -41z m1152 -36 c31 -71 6 -194 -62 -300
-30 -47 -38 -54 -57 -47 -12 4 -59 9 -103 11 -82 4 -82 4 -86 34 -4 26 1 33
42 59 101 65 173 164 201 275 l12 48 19 -24 c11 -13 26 -38 34 -56z m-122 25
c-26 -87 -106 -188 -175 -223 -54 -28 -69 -45 -69 -82 0 -38 -1 -38 -40 -18
l-29 15 -3 118 -3 117 -175 0 -175 0 -3 -123 c-3 -121 -3 -123 -28 -132 -33
-13 -34 -13 -28 5 13 32 -6 65 -49 86 -93 48 -151 111 -187 208 l-20 51 496 0
495 0 -7 -22z m-2090 -64 l24 -15 -28 -62 c-15 -34 -34 -81 -40 -104 -7 -24
-15 -43 -17 -43 -13 0 -43 23 -43 33 0 13 73 207 78 207 1 0 13 -7 26 -16z
m1640 -205 c35 -50 132 -114 203 -135 28 -8 88 -16 132 -17 l81 -2 0 -39 0
-39 -97 6 c-137 7 -199 33 -285 118 l-68 67 -67 -67 c-87 -86 -148 -111 -285
-119 l-98 -5 0 39 0 39 78 2 c139 4 242 49 323 142 24 27 46 50 49 50 3 0 18
-18 34 -40z m-1730 -112 c-10 -79 -11 -123 -1 -167 l8 -35 -40 42 c-55 57 -56
94 -6 231 4 10 9 10 26 1 20 -10 21 -16 13 -72z m1011 -23 c130 -132 215 -254
177 -254 -15 0 -107 62 -145 98 -51 48 -117 145 -129 188 -5 19 -6 45 -2 57
l7 22 16 -25 c8 -14 42 -52 76 -86z m1465 64 c0 -77 -123 -234 -228 -291 l-52
-28 0 26 c0 19 16 45 52 84 28 31 58 68 67 82 9 14 42 49 73 78 31 29 60 61
63 72 9 28 25 13 25 -23z m-639 -133 c67 -35 152 -55 226 -55 l63 0 -6 -57
c-14 -140 -77 -350 -131 -443 -42 -72 -118 -146 -176 -170 -71 -31 -175 -33
-238 -3 -155 71 -264 286 -307 611 l-9 62 51 0 c130 1 274 57 343 134 l38 42
48 -48 c27 -27 71 -60 98 -73z m1835 -103 c87 -87 133 -215 119 -329 -5 -42
-10 -53 -24 -53 -16 0 -19 11 -23 73 -8 123 -77 222 -193 277 -27 13 -51 24
-52 25 -2 1 7 25 19 53 l22 51 39 -22 c22 -12 64 -46 93 -75z m-3712 -75 c26
-19 39 -91 22 -125 -7 -15 -21 -53 -30 -85 -9 -31 -29 -71 -44 -89 -26 -28
-35 -31 -110 -38 -86 -7 -112 -19 -112 -54 -1 -14 -11 -1 -32 38 -28 55 -29
62 -18 100 29 100 128 208 223 245 62 24 78 25 101 8z m2446 -64 c0 -22 -84
-101 -126 -119 -43 -18 -69 -18 -88 2 -20 19 -12 34 18 34 27 0 158 63 176 85
16 19 20 19 20 -2z m-1333 -45 c18 -11 55 -26 81 -32 53 -14 62 -35 20 -50
-36 -13 -81 7 -140 62 -54 50 -67 87 -21 57 14 -10 41 -27 60 -37z m-324 -52
c3 -47 11 -94 17 -105 9 -17 6 -22 -17 -35 -88 -45 -297 -62 -425 -35 -144 31
-231 108 -252 221 l-7 36 62 -19 c33 -10 98 -22 142 -25 98 -8 295 10 392 35
39 10 73 17 76 15 3 -2 9 -42 12 -88z m1978 69 c32 -9 98 -19 146 -23 l88 -7
-4 -95 c-4 -122 -11 -130 -102 -130 -75 0 -166 16 -188 33 -7 6 -17 22 -22 35
-12 30 0 202 13 202 6 0 36 -7 69 -15z m1385 -106 c8 -14 -21 -43 -35 -35 -6
4 -11 16 -11 27 0 21 34 27 46 8z m-4729 -156 c-16 -16 -18 -16 -34 0 -17 17
-17 19 2 33 17 12 21 12 34 -1 14 -13 13 -17 -2 -32z m1846 -17 c45 -9 55 -14
45 -24 -17 -17 -54 -15 -93 4 -36 17 -60 52 -28 39 10 -4 44 -12 76 -19z m998
-7 c-30 -24 -64 -33 -96 -25 -31 8 -33 26 -2 26 12 0 42 6 67 14 54 16 64 11
31 -15z m1704 -8 c56 -28 145 -107 145 -130 0 -4 -14 -11 -31 -15 -24 -5 -40
0 -73 25 -42 29 -121 59 -158 59 -32 0 -74 -52 -92 -114 -31 -105 -51 -121
-166 -129 -46 -4 -68 -11 -77 -23 -15 -20 -17 -135 -3 -204 7 -41 7 -43 -7
-25 -59 77 -81 235 -48 336 32 97 97 174 184 219 99 50 225 50 326 1z m-4175
-25 c0 -8 -5 -18 -11 -22 -14 -8 -33 11 -25 25 10 16 36 13 36 -3z m550 -46
c131 -44 298 -44 428 1 30 10 56 19 57 19 1 0 6 -167 10 -370 8 -425 12 -405
-83 -447 -108 -48 -255 -40 -346 17 -80 51 -80 51 -105 402 -12 172 -24 332
-27 356 -3 23 -3 42 1 42 3 0 32 -9 65 -20z m2415 -16 c92 -17 234 -19 285 -4
19 5 38 10 42 10 5 0 8 -33 8 -72 0 -119 -36 -656 -46 -682 -3 -8 -29 -24 -57
-37 -42 -18 -70 -23 -147 -23 -82 0 -103 4 -152 26 l-58 27 0 392 0 391 23 -6
c12 -4 58 -14 102 -22z m1124 -28 c16 -20 3 -46 -24 -46 -29 0 -39 25 -19 45
19 19 28 19 43 1z m-4068 -38 c120 -41 192 -162 160 -270 -16 -53 -75 -116
-136 -144 -73 -34 -205 -32 -205 3 0 11 5 13 18 7 9 -4 43 -10 74 -12 74 -5
158 30 188 80 24 39 26 98 4 139 -20 39 -44 34 -66 -13 -20 -42 -47 -53 -151
-63 -47 -5 -75 -13 -87 -25 -18 -18 -19 -18 -44 15 -14 18 -41 43 -60 54 -31
19 -33 24 -27 54 18 75 66 132 141 166 51 23 138 27 191 9z m1713 -53 c15 -12
17 -18 8 -27 -8 -8 -8 -15 -1 -24 8 -10 1 -18 -28 -32 -56 -29 -158 -108 -177
-138 -19 -28 -16 -75 25 -420 24 -203 24 -204 -1 -204 -11 0 -23 6 -25 13 -3
6 -16 102 -30 212 -15 110 -33 250 -40 310 -8 61 -15 113 -15 117 0 26 137
145 215 186 48 25 45 25 69 7z m524 -36 c26 -18 75 -59 109 -92 l63 -61 -33
-27 -32 -27 -63 59 c-35 33 -89 74 -119 91 l-56 32 34 28 c18 15 37 28 42 28
5 0 29 -14 55 -31z m1192 -124 c0 -27 -7 -72 -15 -100 l-15 -50 5 49 c3 27 5
79 5 115 0 46 3 62 10 51 5 -8 10 -37 10 -65z m328 -14 c-5 -24 -38 -27 -38
-3 0 10 3 21 6 25 11 11 35 -5 32 -22z m-1740 -102 c15 -6 22 -17 22 -34 0
-23 -3 -25 -50 -25 l-50 0 0 40 c0 39 1 40 28 34 15 -4 37 -11 50 -15z m-118
-24 l0 -35 -50 0 c-47 0 -50 2 -50 25 0 28 25 43 73 44 24 1 27 -2 27 -34z
m-140 -20 c0 -8 -7 -15 -16 -15 -14 0 -14 3 -4 15 7 8 14 15 16 15 2 0 4 -7 4
-15z m330 0 c10 -12 10 -15 -4 -15 -9 0 -16 7 -16 15 0 8 2 15 4 15 2 0 9 -7
16 -15z m140 -55 c0 -6 -110 -10 -310 -10 -200 0 -310 4 -310 10 0 6 110 10
310 10 200 0 310 -4 310 -10z m-1074 -157 c22 -52 17 -95 -16 -145 -54 -82
-135 -129 -258 -150 -143 -24 -313 20 -400 105 -80 77 -93 141 -45 212 l28 40
6 -55 c9 -81 16 -95 66 -140 107 -94 332 -109 456 -30 71 45 100 91 105 167 4
63 5 64 25 46 11 -10 26 -32 33 -50z m2250 -40 c5 -28 2 -47 -16 -80 -45 -85
-135 -141 -270 -169 -132 -26 -268 -3 -363 63 l-40 28 29 5 c17 3 33 14 38 26
9 21 10 20 69 -10 58 -30 66 -31 181 -31 143 0 195 18 266 90 40 41 44 49 48
107 l5 62 23 -27 c13 -15 26 -44 30 -64z m-1646 12 c0 -44 0 -45 -34 -45 -32
0 -34 2 -39 38 -6 48 -3 52 39 52 34 0 34 0 34 -45z m140 0 l0 -45 -50 0 -50
0 0 45 0 45 50 0 50 0 0 -45z m140 0 l0 -45 -50 0 -50 0 0 45 0 45 50 0 50 0
0 -45z m90 0 c0 -43 -1 -45 -30 -45 -29 0 -30 2 -30 45 0 43 1 45 30 45 29 0
30 -2 30 -45z m-710 -10 c0 -25 -1 -25 -84 -25 -81 0 -84 1 -88 25 l-5 25 88
0 c88 0 89 0 89 -25z m1152 0 c-4 -24 -7 -25 -84 -25 -69 0 -79 2 -74 16 3 9
6 20 6 25 0 5 35 9 79 9 78 0 78 0 73 -25z m-374 -87 c-4 -10 -68 -13 -278
-13 -210 0 -274 3 -277 13 -4 9 56 12 277 12 221 0 281 -3 278 -12z m-1642
-174 c29 -13 81 -28 115 -33 34 -6 63 -12 64 -13 1 -2 5 -40 7 -85 4 -79 4
-82 -16 -78 -12 2 -39 7 -60 10 -53 9 -133 49 -174 89 -49 45 -72 96 -72 157
l0 51 41 -37 c23 -20 66 -48 95 -61z m1204 30 c0 -9 -7 -14 -17 -12 -25 5 -28
28 -4 28 12 0 21 -6 21 -16z m140 1 c0 -11 -12 -15 -50 -15 -38 0 -50 4 -50
15 0 11 12 15 50 15 38 0 50 -4 50 -15z m140 0 c0 -11 -12 -15 -50 -15 -38 0
-50 4 -50 15 0 11 12 15 50 15 38 0 50 -4 50 -15z m80 0 c-7 -8 -21 -15 -31
-15 -11 0 -19 7 -19 15 0 10 10 15 31 15 27 0 30 -2 19 -15z m720 -47 c48 -19
74 -22 197 -22 l142 -1 3 -77 c3 -88 10 -82 -102 -94 -79 -8 -195 9 -261 38
l-49 20 0 79 c0 44 3 79 8 79 4 0 32 -10 62 -22z m-2955 -212 c89 -42 135
-112 135 -205 0 -54 -16 -101 -35 -101 -7 0 -11 19 -11 49 0 52 -24 101 -50
101 -8 0 -21 -15 -29 -33 -8 -19 -21 -40 -30 -47 -13 -11 -19 -11 -33 4 -9 9
-17 29 -17 44 0 22 -5 27 -25 27 -14 0 -43 12 -65 26 -22 14 -50 31 -63 38
l-23 12 40 44 c23 25 41 49 41 55 0 20 113 11 165 -14z m3879 -253 c-14 -87
-8 -165 18 -230 24 -59 24 -61 6 -72 -13 -8 -18 -21 -16 -39 3 -24 7 -27 44
-27 32 0 49 -8 83 -37 l43 -37 -53 -16 c-30 -8 -97 -18 -149 -22 -52 -3 -112
-12 -133 -19 -34 -12 -38 -12 -44 4 -34 101 -102 186 -190 239 -24 13 -43 28
-43 33 0 4 19 36 41 69 38 57 108 120 169 152 48 25 135 48 183 48 l48 1 -7
-47z m-3376 -216 l63 -23 -40 -16 c-41 -16 -41 -16 -59 10 -24 34 -34 52 -30
52 2 0 31 -11 66 -23z m477 -167 c53 -19 173 -74 142 -65 -11 3 -24 2 -30 -2
-17 -10 -38 -13 -32 -4 2 5 -22 8 -55 8 -33 0 -63 3 -67 6 -3 4 -14 25 -25 48
-17 39 -17 41 0 34 9 -4 40 -15 67 -25z"/>
<path d="M2550 2666 c-64 -61 -120 -80 -210 -69 l-53 6 7 -64 c16 -161 79
-334 149 -415 77 -88 195 -110 286 -53 107 65 195 256 218 470 l6 62 -59 -7
c-88 -10 -156 14 -218 75 -27 27 -54 49 -60 49 -6 0 -36 -24 -66 -54z m70
-136 c0 -19 -7 -33 -20 -40 -25 -14 -25 -35 0 -62 l19 -21 21 24 c11 13 29 40
40 60 20 37 37 49 71 49 23 0 24 -8 5 -29 -22 -24 -5 -47 23 -32 18 10 21 9
21 -8 0 -28 -27 -51 -58 -51 -16 0 -37 -11 -51 -25 l-23 -25 61 -65 c64 -69
72 -88 44 -99 -12 -5 -35 11 -82 59 l-65 66 -38 -38 c-21 -20 -38 -42 -38 -48
0 -20 -48 -58 -64 -52 -20 8 -20 23 -1 31 22 8 7 38 -16 31 -12 -4 -19 -2 -19
7 0 20 21 38 43 38 11 0 37 16 58 34 l38 35 -35 30 c-19 17 -39 31 -44 31 -5
0 -21 -17 -35 -37 l-25 -38 0 28 c0 42 15 66 78 124 66 61 92 67 92 23z"/>
<path d="M620 1815 c-10 -12 -10 -19 -1 -28 14 -14 46 2 46 24 0 20 -30 23
-45 4z"/>
<path d="M5062 1668 c-31 -31 7 -81 43 -55 23 18 16 61 -10 65 -11 1 -26 -3
-33 -10z"/>
<path d="M160 1565 c-16 -19 -6 -45 18 -45 25 0 46 25 38 45 -7 19 -40 19 -56
0z"/>
<path d="M5020 1225 c-16 -19 -9 -49 13 -53 38 -7 66 49 31 62 -23 9 -30 8
-44 -9z"/>
<path d="M130 1120 c-13 -24 -5 -40 19 -40 28 0 46 26 31 45 -17 21 -37 19
-50 -5z"/>
<path d="M4872 628 c-17 -17 -15 -55 4 -62 27 -10 56 12 52 42 -3 30 -35 41
-56 20z"/>
<path d="M125 416 c-18 -27 -11 -53 16 -61 40 -13 78 30 59 66 -15 27 -56 24
-75 -5z"/>
<path d="M700 265 c-16 -19 -9 -49 13 -53 38 -7 66 49 31 62 -23 9 -30 8 -44
-9z"/>
<path d="M893 272 c-6 -4 -21 -28 -32 -54 -24 -57 -65 -75 -196 -87 -129 -11
-176 -42 -163 -108 3 -17 19 -18 207 -21 198 -2 205 -2 227 19 33 31 47 83 41
147 -8 78 -48 127 -84 104z"/>
<path d="M1230 175 c-10 -12 -10 -19 -1 -28 14 -14 46 2 46 24 0 20 -30 23
-45 4z"/>
<path d="M1366 183 c-4 -5 -14 -22 -21 -39 -15 -37 -46 -49 -148 -59 -73 -7
-107 -28 -107 -65 0 -19 7 -20 155 -20 l154 0 16 30 c35 68 -6 196 -49 153z"/>
<path d="M3830 105 c-19 -23 -8 -50 22 -53 19 -2 30 3 38 18 21 39 -31 70 -60
35z"/>
<path d="M4038 109 c-10 -5 -18 -14 -18 -20 0 -5 -9 -28 -19 -49 l-19 -40 79
0 79 0 -6 27 c-9 36 -20 57 -40 77 -18 18 -32 20 -56 5z"/>
<path d="M5080 15 l-25 -14 33 -1 c22 0 32 5 32 15 0 18 -8 18 -40 0z"/>
</g>
</svg>
